Coordinates
version=1
nRows=17
nColumns=36
inDegrees=yes

Units are S.I. units (second, meters, Newtons, ...)
If the header above contains a line with 'inDegrees', this indicates whether rotational values are in degrees (yes) or radians (no).

endheader
time	pelvis_tilt	pelvis_list	pelvis_rotation	pelvis_tx	pelvis_ty	pelvis_tz	hip_flexion_r	hip_adduction_r	hip_rotation_r	knee_angle_r	knee_angle_r_beta	ankle_angle_r	subtalar_angle_r	mtp_angle_r	hip_flexion_l	hip_adduction_l	hip_rotation_l	knee_angle_l	knee_angle_l_beta	ankle_angle_l	subtalar_angle_l	mtp_angle_l	lumbar_extension	lumbar_bending	lumbar_rotation	arm_flex_r	arm_add_r	arm_rot_r	elbow_flex_r	pro_sup_r	arm_flex_l	arm_add_l	arm_rot_l	elbow_flex_l	pro_sup_l
      7.20000000	     15.95507799	     11.97338809	      8.02022250	      1.18871054	      0.96859310	      0.06578051	    -11.97664085	     -2.84208406	      0.17733943	     26.04502946	      0.45457152	     26.83426216	     -5.23066722	     -7.49999987	     13.32747676	      4.28144520	     -7.78140740	     10.89660979	      0.19018172	      8.43699785	    -13.04425207	     -7.49999987	    -34.16464791	    -12.27844980	     -8.67732125	     63.20575679	     -1.80521273	     58.29716687	    122.33582259	     98.29272427	     56.85038946	      2.48762846	     60.94805064	    117.00596094	     96.89306935
      7.21666670	     15.35921611	     12.36235651	      7.60611611	      1.19455133	      0.97574451	      0.06385541	    -12.34573284	     -3.61161873	      0.09827348	     24.04123307	      0.41959867	     25.70036224	     -4.77615431	     -7.49999987	     13.46609748	      4.98434485	     -7.72351478	     10.62598598	      0.18545844	      8.98286855	    -12.97939818	     -7.49999987	    -33.18204898	    -12.93900674	     -7.94137138	     63.13517038	     -1.72033951	     59.14834344	    123.03259008	     98.21790262	     55.90900970	      1.95313175	     61.14895974	    117.04414785	     96.79480872
      7.23333330	     14.93721990	     12.81018132	      7.26651406	      1.19570577	      0.97969452	      0.06415281	    -12.81614235	     -4.37948232	     -0.04346298	     22.23943972	      0.38815145	     24.57213264	     -4.55593055	     -7.49999987	     13.30663996	      5.73203253	     -8.03914922	     10.18343362	      0.17773445	      9.27937091	    -12.41475854	     -7.49999987	    -32.26265148	    -13.63862240	     -7.41660770	     62.60014572	     -1.92688798	     59.94028533	    123.10347809	     97.75021554	     55.45241109	      1.52560288	     62.21424020	    117.35264568	     96.31847051
      7.25000000	     14.40950690	     13.07814315	      7.05357715	      1.19669332	      0.98378519	      0.06477337	    -13.11609060	     -4.89550694	     -0.20102200	     20.35481512	      0.35525854	     23.50953609	     -4.14351966	     -7.49999987	     13.24641636	      6.30340423	     -8.28011964	      9.71647450	      0.16958447	      9.15551851	    -12.18701879	     -7.49999987	    -31.21515981	    -14.16519062	     -6.74019184	     62.78767605	     -1.30221333	     59.48573964	    123.38541084	     97.67559552	     55.21257777	      1.32457286	     62.47099403	    117.53289846	     96.37084521
      7.26666670	     13.78544645	     13.30044967	      6.62174787	      1.19299442	      0.98665847	      0.06288468	    -13.12045388	     -5.48869632	     -0.31625003	     18.74424898	      0.32714886	     22.49983068	     -3.68988443	     -7.49999987	     13.47973053	      6.86155326	     -8.59666063	      9.97415527	      0.17408185	      9.30450798	    -12.17756266	     -7.49999987	    -30.05607452	    -14.63647416	     -5.92273910	     63.52857414	     -1.33566238	     58.78603369	    123.10124432	     97.56224654	     55.74307847	      1.32089570	     62.65447305	    118.12496605	     96.41438913
      7.28333330	     12.52016875	     13.40809851	      6.45694290	      1.19429882	      0.98492750	      0.06325360	    -12.49442346	     -5.93115484	     -0.34126230	     17.10359624	      0.29851407	     21.42990435	     -3.29208465	     -7.49999987	     14.58649237	      7.31469402	     -8.77048289	      9.86583806	      0.17219136	      9.58402742	    -12.00555188	     -7.49999987	    -28.02472610	    -15.15645071	     -5.15733987	     63.47362720	     -1.51853037	     58.22451235	    123.09846888	     96.31729656	     55.71379739	      1.51852620	     62.31683733	    118.48137545	     95.27462792
      7.30000000	     12.81523016	     13.73108256	      5.90273907	      1.19487713	      0.98971248	      0.06378183	    -13.58293614	     -6.41948055	     -0.57317868	     15.36428304	      0.26815733	     20.85759693	     -2.57987605	     -7.49999987	     13.51089515	      7.76042268	     -9.30251391	      9.44007086	      0.16476032	     10.21282620	    -10.75426582	     -7.49999987	    -27.96861095	    -15.62326339	     -4.45200858	     64.48218103	     -1.34002221	     57.98683001	    123.70919719	     96.06371812	     56.20145395	      1.73380547	     61.80801258	    119.14494907	     95.58454056
      7.31666670	     12.34267208	     13.75721844	      5.33815027	      1.19636342	      0.99643677	      0.06478646	    -13.97729377	     -6.77934501	     -0.77988304	     13.30811776	      0.23227047	     19.98685085	     -2.03328211	     -7.49999987	     13.09470710	      8.01419633	     -9.74658357	      8.90499910	      0.15542155	     10.07818634	    -10.51209303	     -7.49999987	    -26.86072924	    -15.83459774	     -3.46321831	     63.93216894	     -1.68730524	     58.49618391	    123.64871098	     96.01384205	     55.21908201	      1.11170036	     61.86652924	    118.84336052	     95.64703117
      7.33333330	     11.98229220	     13.85007917	      4.93691093	      1.19712331	      0.99705185	      0.06459019	    -14.46131861	     -7.08228970	     -0.95900268	     11.44771367	      0.19980030	     19.14317343	     -1.51195878	     -7.49999987	     12.66472023	      8.35534620	    -10.02167263	      8.38630720	      0.14636867	     10.10512764	    -10.00370091	     -7.49999987	    -25.90350755	    -15.95929247	     -2.63406342	     63.68708788	     -2.17645651	     58.42778116	    123.19017038	     95.94469805	     54.83188444	      0.82090253	     61.90637923	    118.41379623	     95.72706577
      7.35000000	     11.67151743	     13.81184491	      4.52551259	      1.19805905	      0.99819560	      0.06495220	    -14.82997880	     -7.23298914	     -1.07943046	      9.83851760	      0.17171453	     18.36464580	     -1.06787730	     -7.49999987	     12.14455213	      8.53553282	    -10.18241908	      7.86984453	      0.13735470	     10.28293545	     -9.35797122	     -7.49999987	    -25.15623053	    -15.99607265	     -1.86123647	     63.38736489	     -2.32351480	     58.48383675	    123.27615471	     95.87350379	     54.33202985	      0.49582915	     62.29490995	    117.96347415	     95.84331994
      7.36666670	     11.53586414	     13.62915104	      4.10632338	      1.19856283	      0.99687833	      0.06486887	    -15.06367054	     -7.19649918	     -1.02763760	      8.77142299	      0.15309021	     17.87850914	     -0.67012674	     -7.49999987	     11.60905174	      8.50536415	    -10.07485216	      7.64293518	      0.13339438	     10.43253185	     -9.02188878	     -7.49999987	    -24.48531465	    -15.89973080	     -1.42647162	     63.44574721	     -2.08399185	     58.37698732	    123.46724234	     95.85389690	     54.36589642	      0.35799942	     62.49113979	    117.83622533	     95.92905072
      7.38333330	     11.50102293	     13.41012972	      3.73588527	      1.19903727	      0.99628986	      0.06532069	    -15.33400572	     -7.07971903	     -1.07441039	      7.82948467	      0.13665029	     17.37459357	     -0.36128903	     -7.49999987	     10.96959802	      8.40508751	    -10.19329049	      7.34437236	      0.12818348	     10.51450985	     -8.21754683	     -7.49999987	    -23.81792221	    -15.80813067	     -0.64410535	     63.07774763	     -2.05958085	     57.97589983	    123.97738382	     94.42656990	     54.09443594	      0.39119180	     63.47920983	    119.24629827	     94.82970154
      7.40000000	     11.69872784	     13.20922642	      3.16144369	      1.20433466	      1.00065832	      0.06212274	    -15.97884182	     -7.06347465	     -0.89079063	      6.76018078	      0.11798741	     17.11931056	     -0.06264713	     -7.49999987	      9.77614751	      8.39169278	    -10.87724878	      7.05433475	      0.12312137	     11.13576849	     -6.76261843	     -7.49999987	    -23.13076492	    -15.61030523	      0.36712777	     62.39211102	     -2.31273121	     57.96711316	    123.69175974	     94.01356679	     52.77669243	      0.03890120	     64.42558905	    120.19403644	     95.06379729
      7.41666670	     11.45223271	     12.85509263	      2.71965633	      1.20505662	      0.99926439	      0.06245551	    -15.94597505	     -6.92325355	     -0.64744875	      6.11765760	      0.10677327	     16.87444529	      0.34385461	     -7.49999987	      9.29141126	      8.24360714	    -10.86885069	      6.80346763	      0.11874291	     11.17395564	     -6.13479803	     -7.49999987	    -22.14677238	    -15.27418305	      1.08467327	     61.44180517	     -2.59782840	     58.12283242	    123.98238184	     94.09225275	     51.39966452	     -0.36020502	     64.67270084	    121.05085842	     95.35633648
      7.43333330	     11.41702908	     12.43543546	      2.59904089	      1.20001015	      0.99734334	      0.05949467	    -15.94809251	     -6.62881577	     -0.46441538	      5.78171953	      0.10091004	     16.64846902	      0.59229311	     -7.49999987	      8.87956968	      8.00077499	    -10.49001289	      6.87271527	      0.11995151	     11.19116691	     -5.73913025	     -7.49999987	    -21.71059967	    -14.62769798	      1.15680060	     61.01417123	     -2.95762535	     58.27335311	    124.13646437	     94.07153164	     50.90998742	     -0.59723024	     64.67409083	    121.08016230	     95.38498241
      7.45000000	     11.28112375	     12.02717659	      2.42684814	      1.20040976	      0.99426046	      0.05976023	    -15.78459183	     -6.33609639	     -0.38509545	      5.56680415	      0.09715906	     16.50508730	      0.85303106	     -7.49999987	      8.66344215	      7.68855053	    -10.35021854	      7.11046637	      0.12410105	     11.30871690	     -5.25522891	     -7.49999987	    -21.15421619	    -14.10757956	      1.32170066	     60.49905860	     -3.06121394	     58.31477058	    124.73606209	     94.03137682	     50.21977550	     -0.47960989	     63.89694528	    121.07354855	     95.44768559
      7.46666670	     11.30039208	     11.69981938	      2.24155553	      1.20063685	      0.99133915	      0.05973345	    -15.65693953	     -6.07124113	     -0.30769921	      5.47152981	      0.09549621	     16.61619148	      1.11646007	     -7.49999987	      8.27892612	      7.36904913	     -9.81274767	      7.24919662	      0.12652235	     11.41983565	     -4.97389145	     -7.49999987	    -20.79335192	    -13.70410828	      1.66166632	     60.43529542	     -3.25794017	     57.87553645	    124.91537719	     91.71264959	     50.01776968	     -0.11074455	     63.33435224	    121.46679577	     93.33408807
